<?xml version="1.0" encoding="utf-8"?>
<!-- Generator: Adobe Illustrator 21.0.0, SVG Export Plug-In . SVG Version: 6.00 Build 0)  -->
<svg version="1.1" id="Layer_1" xmlns="http://www.w3.org/2000/svg" xmlns:xlink="http://www.w3.org/1999/xlink" x="0px" y="0px"
	 viewBox="0 0 133.3 50" style="enable-background:new 0 0 133.3 50;" xml:space="preserve">
<style type="text/css">
	.st0{fill:#FFFFFF;}
</style>
<g>
	<g>
		<g>
			<path class="st0" d="M11,19.5l-0.8,5.6H8.4l-0.7,5.1H1.3l1.9-13.6c0.4-2.6,1.4-4.7,3-6.1c1.6-1.5,3.8-2.2,6.4-2.2
				c2.5,0,4.3,0.7,5.3,2c1,1.3,1.3,3.4,0.9,6.1l-1.9,13.8h-6.3l1.9-13.4c0.1-0.8,0.1-1.4-0.1-1.7c-0.2-0.3-0.5-0.5-1-0.5
				c-1,0-1.6,0.7-1.8,2.2l-0.4,2.7C9.2,19.5,11,19.5,11,19.5z"/>
			<path class="st0" d="M22.4,14.8h5.9L27,23.6C26.9,24.5,27.2,25,28,25c0.7,0,1.2-0.4,1.3-1.3l1.2-8.8h5.8l-1.2,8.7
				c-0.3,2-1.2,3.7-2.7,5.1c-1.5,1.4-3.3,2.1-5.2,2.1c-2.2,0-3.9-0.8-5-2.4c-0.9-1.3-1.2-3-0.8-5.3L22.4,14.8z"/>
			<path class="st0" d="M45.8,8.9l-0.8,6h2.6L46.7,21h-2.6c-0.2,1.2-0.1,2.1,0.2,2.6c0.3,0.5,1,0.7,2.1,0.7l-0.9,6.1
				c-0.3,0-0.5,0-0.7,0c-1.3,0-2.5-0.3-3.6-0.9c-1.1-0.6-1.9-1.4-2.5-2.5c-0.7-1.3-0.9-3.1-0.6-5.3l1.8-12.8
				C39.9,8.9,45.8,8.9,45.8,8.9z"/>
			<path class="st0" d="M57.9,14.3c2.2,0,4,0.8,5.4,2.4c1.4,1.6,1.9,3.5,1.6,5.7c-0.3,2.3-1.4,4.2-3.2,5.8c-1.8,1.6-3.9,2.4-6.1,2.4
				c-2.3,0-4.1-0.8-5.5-2.4c-1.4-1.6-1.9-3.5-1.6-5.8c0.3-2.3,1.4-4.2,3.2-5.8C53.5,15.1,55.6,14.3,57.9,14.3z M57,20.1
				c-0.6,0-1.2,0.2-1.7,0.7c-0.5,0.5-0.8,1-0.9,1.7c-0.1,0.6,0.1,1.2,0.4,1.7c0.4,0.5,0.9,0.7,1.5,0.7c0.6,0,1.2-0.2,1.7-0.7
				c0.5-0.5,0.8-1,0.9-1.7c0.1-0.7,0-1.2-0.4-1.7C58.1,20.3,57.6,20.1,57,20.1z"/>
			<path class="st0" d="M66.2,30.2l2.2-15.4c0.3-1.9,1.1-3.5,2.4-4.7c1.3-1.2,2.9-1.8,4.8-1.8c2.2,0,3.7,1,4.6,3
				c0.9-1.1,1.7-1.9,2.6-2.3c0.9-0.5,1.9-0.7,3.1-0.7c1.9,0,3.3,0.6,4.2,1.8c0.8,1.2,1.1,3,0.8,5.2l-2.1,14.8h-6.3l2-13.9
				c0.1-0.7,0.1-1.1,0-1.4c-0.1-0.2-0.3-0.3-0.6-0.3c-0.6,0-1,0.5-1.2,1.6l-2,14h-6.4l2-13.9c0.1-0.7,0.1-1.1,0-1.4
				c-0.1-0.2-0.3-0.3-0.6-0.3c-0.6,0-1,0.6-1.2,1.7l-2,13.9L66.2,30.2L66.2,30.2z"/>
			<path class="st0" d="M101.7,24.4l-0.9,6.1c-0.5,0.1-0.9,0.1-1.3,0.1c-2.3,0-4.2-0.8-5.5-2.3c-1.3-1.5-1.9-3.5-1.5-5.8
				c0.3-2.3,1.4-4.2,3.2-5.8c1.8-1.6,3.8-2.4,6.1-2.4c2.5,0,4.4,0.7,5.7,2.2c1.2,1.5,1.7,3.5,1.3,6l-1.1,7.6h-5.8l1-7.2
				c0.1-0.8,0-1.5-0.3-2c-0.3-0.5-0.8-0.7-1.5-0.7c-0.6,0-1.2,0.2-1.7,0.7c-0.5,0.5-0.8,1-0.9,1.6c-0.1,0.6,0,1.2,0.4,1.6
				c0.4,0.4,0.8,0.6,1.5,0.6C100.7,24.8,101.2,24.6,101.7,24.4z"/>
			<path class="st0" d="M121.8,14.5l-0.9,6.3c-0.4-0.2-0.7-0.3-1.1-0.3c-1.1,0-1.7,0.8-1.9,2.4l-1,7.4H111l1.2-8.5
				c0.3-2.3,1.2-4,2.6-5.4c1.4-1.3,3.2-2,5.2-2C120.5,14.3,121.1,14.3,121.8,14.5z"/>
			<path class="st0" d="M129.5,8.9l-0.8,6h2.6l-0.9,6.2h-2.6c-0.2,1.2-0.1,2.1,0.2,2.6c0.3,0.5,1,0.7,2.1,0.7l-0.9,6.1
				c-0.3,0-0.5,0-0.7,0c-1.3,0-2.5-0.3-3.6-0.9c-1.1-0.6-1.9-1.4-2.5-2.5c-0.7-1.3-0.9-3.1-0.6-5.3l1.8-12.8
				C123.7,8.9,129.5,8.9,129.5,8.9z"/>
		</g>
	</g>
	<g>
		<path class="st0" d="M2.9,34.6h1.6c0.6,0,1.1,0.1,1.4,0.2s0.6,0.3,0.8,0.6c0.2,0.3,0.3,0.6,0.3,0.9c0,0.3-0.1,0.6-0.3,0.8
			c-0.2,0.2-0.4,0.5-0.7,0.6c0.4,0.1,0.7,0.3,0.9,0.4c0.2,0.2,0.4,0.4,0.5,0.6c0.1,0.2,0.2,0.5,0.2,0.8c0,0.6-0.2,1-0.7,1.4
			c-0.5,0.4-1.1,0.6-1.9,0.6H2.9V34.6z M3.6,35.3v2.2h0.4c0.5,0,0.9,0,1.2-0.1c0.3-0.1,0.5-0.2,0.6-0.4c0.1-0.2,0.2-0.4,0.2-0.6
			c0-0.3-0.1-0.6-0.4-0.7c-0.3-0.2-0.7-0.3-1.2-0.3L3.6,35.3L3.6,35.3z M3.6,38.2v2.7h1c0.6,0,1-0.1,1.3-0.2
			c0.3-0.1,0.5-0.3,0.6-0.5c0.2-0.2,0.2-0.4,0.2-0.7c0-0.3-0.1-0.6-0.3-0.8c-0.2-0.2-0.5-0.4-0.9-0.5c-0.3-0.1-0.7-0.1-1.4-0.1
			L3.6,38.2L3.6,38.2z"/>
		<path class="st0" d="M11.3,34.6h0.8v4.2c0,0.5,0,0.8,0,0.9c0,0.3,0.1,0.5,0.3,0.7c0.1,0.2,0.4,0.3,0.7,0.5C13.4,41,13.7,41,14,41
			c0.3,0,0.5,0,0.7-0.1c0.2-0.1,0.4-0.2,0.6-0.4c0.2-0.2,0.3-0.4,0.4-0.6c0.1-0.2,0.1-0.5,0.1-1.1v-4.2h0.8v4.2
			c0,0.6-0.1,1.1-0.2,1.5c-0.1,0.4-0.4,0.7-0.8,1c-0.4,0.3-0.9,0.4-1.5,0.4c-0.6,0-1.2-0.1-1.6-0.4c-0.5-0.3-0.8-0.6-0.9-1.1
			c-0.1-0.3-0.1-0.8-0.1-1.5L11.3,34.6L11.3,34.6z"/>
		<path class="st0" d="M20.1,34.6H21l2,2.9l2-2.9h0.9l-2.5,3.6v3.3h-0.8v-3.3L20.1,34.6z"/>
		<path class="st0" d="M38.3,34.4c1.2,0,2.2,0.4,3,1.1c0.8,0.7,1.2,1.6,1.2,2.6c0,1-0.4,1.9-1.2,2.6c-0.8,0.7-1.8,1.1-2.9,1.1
			c-1.2,0-2.1-0.4-3-1.1c-0.8-0.7-1.2-1.6-1.2-2.6c0-0.7,0.2-1.3,0.5-1.8c0.4-0.6,0.9-1,1.5-1.3C36.9,34.6,37.6,34.4,38.3,34.4z
			 M38.3,35.1c-0.6,0-1.1,0.1-1.7,0.4c-0.5,0.3-0.9,0.6-1.2,1.1c-0.3,0.5-0.4,1-0.4,1.5c0,0.8,0.3,1.5,1,2.1
			c0.7,0.6,1.4,0.8,2.3,0.8c0.6,0,1.2-0.1,1.7-0.4c0.5-0.3,0.9-0.6,1.2-1.1c0.3-0.5,0.4-1,0.4-1.5c0-0.5-0.1-1-0.4-1.5
			c-0.3-0.4-0.7-0.8-1.2-1.1C39.5,35.2,38.9,35.1,38.3,35.1z"/>
		<path class="st0" d="M46.3,34.6h1.6c0.9,0,1.5,0,1.8,0.1c0.5,0.1,0.8,0.3,1.1,0.6c0.3,0.3,0.4,0.7,0.4,1.1c0,0.4-0.1,0.7-0.3,1
			c-0.2,0.3-0.5,0.5-0.9,0.7c-0.4,0.1-0.9,0.2-1.5,0.2l2.8,3.2h-1l-2.8-3.2h-0.4v3.2h-0.8C46.3,41.5,46.3,34.6,46.3,34.6z
			 M47.1,35.3v2.4l1.4,0c0.5,0,0.9,0,1.2-0.1c0.3-0.1,0.4-0.2,0.6-0.4c0.1-0.2,0.2-0.4,0.2-0.6s-0.1-0.4-0.2-0.6
			c-0.1-0.2-0.3-0.3-0.6-0.4c-0.2-0.1-0.6-0.1-1.2-0.1L47.1,35.3L47.1,35.3z"/>
		<path class="st0" d="M59.5,40.2l0.7-0.4c0.5,0.8,1,1.1,1.6,1.1c0.3,0,0.5-0.1,0.7-0.2c0.2-0.1,0.4-0.2,0.5-0.4
			c0.1-0.2,0.2-0.4,0.2-0.6c0-0.2-0.1-0.5-0.3-0.7c-0.2-0.3-0.7-0.7-1.3-1.1c-0.7-0.4-1.1-0.8-1.2-0.9C60.1,36.8,60,36.4,60,36
			c0-0.3,0.1-0.6,0.2-0.8c0.2-0.2,0.4-0.4,0.7-0.6c0.3-0.1,0.6-0.2,1-0.2c0.4,0,0.7,0.1,1,0.2c0.3,0.2,0.7,0.5,1,0.9L63.3,36
			c-0.3-0.3-0.5-0.6-0.8-0.7c-0.2-0.1-0.4-0.2-0.7-0.2c-0.3,0-0.6,0.1-0.8,0.3c-0.2,0.2-0.3,0.4-0.3,0.6c0,0.2,0,0.3,0.1,0.4
			c0.1,0.1,0.2,0.3,0.4,0.5c0.1,0.1,0.4,0.3,1,0.7c0.7,0.4,1.1,0.8,1.4,1.2c0.3,0.3,0.4,0.7,0.4,1c0,0.5-0.2,0.9-0.7,1.3
			c-0.4,0.4-1,0.6-1.6,0.6c-0.5,0-0.9-0.1-1.3-0.3C60.2,41.1,59.8,40.7,59.5,40.2z"/>
		<path class="st0" d="M68,34.6h4.5v0.7h-3.7v2.2h3.7v0.7h-3.7v2.7h3.7v0.7H68C68,41.5,68,34.6,68,34.6z"/>
		<path class="st0" d="M76,34.6h0.8v6.3h3v0.7H76V34.6z"/>
		<path class="st0" d="M83.3,34.6h0.8v6.3h3v0.7h-3.8L83.3,34.6L83.3,34.6z"/>
		<path class="st0" d="M103.1,35.9l-0.6,0.4c-0.3-0.4-0.8-0.7-1.2-0.9c-0.5-0.2-1-0.3-1.6-0.3c-0.6,0-1.2,0.1-1.7,0.4
			c-0.5,0.3-0.9,0.6-1.2,1.1c-0.3,0.4-0.4,1-0.4,1.5c0,0.8,0.3,1.5,1,2.1c0.7,0.6,1.5,0.8,2.5,0.8c1.1,0,2-0.4,2.8-1.1l0.6,0.4
			c-0.4,0.4-0.9,0.8-1.5,1c-0.6,0.2-1.2,0.4-2,0.4c-1.4,0-2.5-0.4-3.3-1.2c-0.7-0.7-1-1.5-1-2.5c0-1,0.4-1.9,1.2-2.6
			c0.8-0.7,1.8-1,3-1c0.7,0,1.4,0.1,2,0.4C102.2,35,102.7,35.4,103.1,35.9z"/>
		<path class="st0" d="M110,34.6l3.7,6.9h-0.8l-1.2-2.3h-3.4l-1.2,2.3h-0.9l3.7-6.9H110z M109.9,36l-1.4,2.5h2.7L109.9,36z"/>
		<path class="st0" d="M117.2,34.6h1.6c0.9,0,1.5,0,1.8,0.1c0.5,0.1,0.9,0.3,1.1,0.6c0.3,0.3,0.4,0.7,0.4,1.1c0,0.4-0.1,0.7-0.3,1
			c-0.2,0.3-0.5,0.5-0.9,0.7c-0.4,0.1-0.9,0.2-1.5,0.2l2.8,3.2h-1l-2.8-3.2h-0.4v3.2h-0.8C117.2,41.5,117.2,34.6,117.2,34.6z
			 M117.9,35.3v2.4l1.4,0c0.5,0,0.9,0,1.2-0.1c0.3-0.1,0.5-0.2,0.6-0.4c0.1-0.2,0.2-0.4,0.2-0.6s-0.1-0.4-0.2-0.6
			c-0.1-0.2-0.3-0.3-0.6-0.4c-0.2-0.1-0.6-0.1-1.2-0.1L117.9,35.3L117.9,35.3z"/>
		<path class="st0" d="M125.1,40.2l0.7-0.4c0.5,0.8,1,1.1,1.6,1.1c0.3,0,0.5-0.1,0.7-0.2c0.2-0.1,0.4-0.2,0.5-0.4
			c0.1-0.2,0.2-0.4,0.2-0.6c0-0.2-0.1-0.5-0.3-0.7c-0.2-0.3-0.7-0.7-1.4-1.1c-0.7-0.4-1.1-0.8-1.2-0.9c-0.3-0.3-0.4-0.7-0.4-1.1
			c0-0.3,0.1-0.6,0.2-0.8c0.2-0.2,0.4-0.4,0.7-0.6c0.3-0.1,0.6-0.2,1-0.2c0.4,0,0.7,0.1,1,0.2c0.3,0.2,0.7,0.5,1,0.9L129,36
			c-0.3-0.3-0.5-0.6-0.8-0.7c-0.2-0.1-0.4-0.2-0.7-0.2c-0.3,0-0.6,0.1-0.8,0.3c-0.2,0.2-0.3,0.4-0.3,0.6c0,0.2,0,0.3,0.1,0.4
			c0.1,0.1,0.2,0.3,0.4,0.5c0.1,0.1,0.4,0.3,1,0.7c0.7,0.4,1.1,0.8,1.4,1.2c0.2,0.3,0.4,0.7,0.4,1c0,0.5-0.2,0.9-0.6,1.3
			c-0.4,0.4-1,0.6-1.6,0.6c-0.5,0-0.9-0.1-1.3-0.3C125.8,41.1,125.5,40.7,125.1,40.2z"/>
	</g>
</g>
</svg>
