<?xml version="1.0" encoding="utf-8"?>
<!-- Generator: Adobe Illustrator 21.0.0, SVG Export Plug-In . SVG Version: 6.00 Build 0)  -->
<svg version="1.1" id="Layer_1" xmlns="http://www.w3.org/2000/svg" xmlns:xlink="http://www.w3.org/1999/xlink" x="0px" y="0px"
	 viewBox="0 0 915.5 344" style="enable-background:new 0 0 915.5 344;" xml:space="preserve">
<style type="text/css">
	.st0{fill:#495057;}
	.st1{fill:#FFFFFF;}
</style>
<g>
	<path class="st0" d="M315.4,289.4h-18.7v28h-13.1v-62.6h13.1v25.1h18.7v-25.1h13.1v62.6h-13.1L315.4,289.4 M658.1,264.4h17.8v-9.6
		h-48.6v9.6h17.7v53.1h13.1V264.4 M558.3,307.9l0-53.1h-13.1v62.6h37.4v-9.6H558.3 M406,307c0.2,0.6,0.7,0.8,1.4,0.8
		c0.7,0,1.2-0.2,1.4-0.8l13.6-52.2h11.6L418.4,312c-0.9,3.6-3.2,5.4-6.7,5.4h-12.1c-3.5,0-6.1-1.7-6.8-5.5L377,254.8h15.2L406,307
		 M257.5,307.9c-3.6,0-4.8-0.9-4.8-4.8l0-33.9c0-3.8,0.9-4.8,4.8-4.8h21.1v-9.6h-29.2c-6.7,0-9.8,3.5-9.8,9.8l0,43.1
		c0,7,3.6,9.8,9.8,9.8h29.2v-9.6L257.5,307.9 M349.4,289.4v13.6c0,4,1.2,4.8,4.8,4.8h24.2v9.6h-32.3c-6.6,0-9.8-3.2-9.8-9.8v-43.1
		c0-6.4,3-9.8,9.8-9.8h29.5v9.6h-21.5c-4,0-4.8,1.2-4.8,4.8v10.7h26v9.6H349.4 M456.7,281.6c-2.8,0-4.3,1.7-4.3,4.4
		c0,1.4,0.7,2.3,1.2,3.3l16.5,28.2h16.2L469.1,291l2.9,0c6.1,0,9.8-2.8,9.8-9.8l0-16.6c0-6.5-3.1-9.8-9.8-9.8h-36.4v62.6h13.1v-53.1
		h15.3c4,0,4.8,1.2,4.8,4.8l0,7.6c0,3.7-1,4.8-4.8,4.8L456.7,281.6 M498.7,317.4c-6,0-9.8-2.7-9.8-9.8l0-43.1c0-6.3,2.9-9.8,9.8-9.8
		h28.8c6.7,0,9.8,3.4,9.8,9.8l0,43.1c0,6.8-3.5,9.8-9.8,9.8H498.7"/>
	<path class="st1" d="M519.5,307.9c3.5,0,4.8-0.8,4.8-4.8l0-33.9c0-4.2-1.4-4.8-4.8-4.8h-12.6c-4.3,0-4.8,1.5-4.8,4.8v33.9
		c0,3.8,1,4.8,4.8,4.8H519.5"/>
	<path class="st0" d="M598.2,289.4l0,13.6c0,4,1.2,4.8,4.8,4.8h24.2v9.6h-32.3c-6.5,0-9.8-3.2-9.8-9.8l0-43.1c0-6.4,3-9.8,9.8-9.8
		h29.5v9.6H603c-4,0-4.8,1.2-4.8,4.8v10.7h26v9.6H598.2"/>
	<path class="st0" d="M525.5,26.5c5.1,0,8,2.8,8,8l0,18.2c0,4.3,2.1,5.2,5.2,5.2l122.7,0c3,0,7.5,1.8,7.5,6.9c0,1.9-0.6,2.9-1.4,4.5
		l-38.7,75.7c-2.7,5-6.6,6.4-12,6.4l-78.1,0c-3.6,0-5.2,1.5-5.2,5.2l0,18.2c0,5.6-3.2,7.9-8,7.9H385c-4.8,0-8-2.5-8-8l0-18.2
		c0-3.5-1.4-5.2-5.2-5.2l-124.5,0c-5.5,0-7.5-3.9-7.5-6.9c0-1.2,0.3-2.3,0.8-3.3l39.2-76.5c1.9-3.9,5.5-6.8,11.6-6.8l80.4,0
		c3.4,0,5.2-1.4,5.2-5.2l0-18.2c0-5,2.7-8,8-8H525.5"/>
	<path class="st1" d="M503.9,50.8c3.5,0,5.2,1.6,5.2,5.3v21c0,3.6,1.7,5.2,5.3,5.2h111.8c3.6,0,4.7,2.3,4.7,4.2c0,0.7-0.2,1.4-0.5,2
		L611.7,125c-1.2,2.1-3.2,2.2-4.7,2.2h-92.6c-3.8,0-5.2,1.7-5.2,5.2l0,21c0,3.5-1.5,5.2-5.3,5.2h-97.3c-3.3,0-5.3-1.1-5.3-5.2l0-21
		c0-3.8-1.8-5.2-5.3-5.2H282.5c-2.8,0-4.7-1.7-4.7-4.2c0-0.7,0.2-1.4,0.5-2l18.7-36.5c0.7-1.3,1.9-2.2,4.7-2.2l94.5,0
		c3.3,0,5.3-1.3,5.3-5.3v-21c0-3.7,1.6-5.2,5.2-5.2L503.9,50.8"/>
</g>
</svg>
