<?xml version="1.0" encoding="utf-8"?>
<!-- Generator: Adobe Illustrator 21.0.0, SVG Export Plug-In . SVG Version: 6.00 Build 0)  -->
<svg version="1.1" id="Layer_1" xmlns="http://www.w3.org/2000/svg" xmlns:xlink="http://www.w3.org/1999/xlink" x="0px" y="0px"
	 viewBox="0 0 915.5 344" style="enable-background:new 0 0 915.5 344;" xml:space="preserve">
<style type="text/css">
	.st0{fill:#495057;}
</style>
<g>
	<path class="st0" d="M367.3,49h19.3c1.1,0,2-0.9,2-2c0,0-0.2-16.5-0.2-21.1v-0.1c0-3.8,0.8-7.1,2.2-9.8l0.7-1.2
		c-0.1,0-0.2,0.1-0.2,0.1l-37.4,37.1c-0.1,0.1-0.1,0.1-0.2,0.2c0.8-0.4,1.8-0.9,2-1C358.6,49.8,362.5,49,367.3,49L367.3,49z
		 M517.2,45c-1.5-8.2-6.4-12.2-10.8-13.8c-4.7-1.7-14.4-3.5-26.5-4.9c-9.7-1.2-21.2-1.1-28.1-0.8c-0.8-5.7-4.8-10.9-9.3-12.7
		c-11.9-4.8-30.3-3.6-34.9-2.3c-3.8,1.1-7.9,3.2-10.2,6.5c-1.5,2.2-2.5,5-2.5,9c0,2.2,0.1,7.5,0.1,12.2c0.1,4.7,0.1,8.9,0.1,8.9
		c0,4.2-3.4,7.6-7.6,7.6h-19.3c-4.1,0-7.3,0.7-9.6,1.8c-2.1,0.9-4,2.4-5.4,4.3c-2.6,3.5-3,7.7-3,12.1c0,0,0.1,3.6,0.9,10.4
		c0.7,5.3,6.5,42.5,12,53.8c2.1,4.4,3.6,6.2,7.7,8.2c9.3,4,30.6,8.4,40.5,9.7c9.9,1.3,16.2,4,19.9-3.9c0,0,0.7-1.9,1.8-4.8
		c3.2-9.8,3.7-18.5,3.7-24.8c0-0.6,0.9-0.7,0.9,0c0,4.4-0.9,20.1,11,24.3c4.7,1.7,14.4,3.1,24.3,4.3c8.9,1,15.4,4.5,15.4,27.4
		c0,13.9-2.9,15.8-18.2,15.8c-12.4,0-17.1,0.3-17.1-9.5c0-8,7.9-7.1,13.7-7.1c2.6,0,0.7-1.9,0.7-6.9c0-4.9,3-7.7,0.2-7.8
		c-20.2-0.6-32,0-32,25.2c0,22.9,8.8,27.2,37.4,27.2c22.4,0,30.4-0.7,39.6-29.5c1.8-5.7,6.3-23,9-52.1
		C523.1,114.5,519.8,59,517.2,45L517.2,45z M478,106.3c-2.8-0.1-5.4,0.1-7.9,0.5c0.7-5.6,3-12.6,11.3-12.3c9.1,0.3,10.4,9,10.5,14.8
		C488,107.6,483.2,106.5,478,106.3z"/>
	<g>
		<path class="st0" d="M150.9,322.6h8.6l0.4-55.1h-9v-10.6h57.2l0.7,21.4h-11.3l-1-10.9H175l-0.2,21.6h21.8v10.6h-22l-0.1,23h21.7
			l1.4-12.2h12.2l-1.4,22.8h-57.6V322.6z M299.8,267.5h-7.2l-27.2,65.7h-15.6l-27.3-65.7h-7.7v-10.6h32.6v10.6h-7.7l18.8,51.8h0.3
			l18.6-51.8h-9.2v-10.6h31.4L299.8,267.5L299.8,267.5L299.8,267.5z M307.3,322.6h8.6l0.4-55.1h-9.1v-10.6h57.2l0.7,21.4h-11.3
			l-1-10.9h-21.6l-0.1,21.6h21.8v10.6h-22l-0.2,23h21.7l1.4-12.2h12.2l-1.4,22.8h-57.6V322.6z M380.7,322.6h8.6l0.4-55.1h-9v-10.6
			h35.2c17.7,0,23.4,10.2,23.4,20c0,8.8-4.3,16.7-18,20.2v0.3c7.1,1.9,8.9,3.8,16,16c4.7,7.9,6.4,9.2,9,9.2c1.1,0,2.2-0.3,3.2-0.4
			v11h-7.8c-10.3,0-11.5-1.2-19.6-17.3c-7.2-14.2-8.9-15.2-14.5-15.2h-3l-0.2,21.8h9v10.6h-32.8V322.6L380.7,322.6z M404.7,290.2h6
			c8.2,0,13.8-4.5,13.8-11.6c0-7-3.5-11.1-10.4-11.1h-9.2L404.7,290.2L404.7,290.2z M519.5,267.5h-9v-10.6h29.9v10.6h-8.6l-0.4,65.7
			h-11.4l-40.8-54.3h-0.3l-0.4,43.7h9v10.6h-29.9v-10.6h8.6l0.4-55.1h-9v-10.6h22.5l38.7,51.6h0.3L519.5,267.5z M583.7,255.4
			c26.3,0,37.9,17.4,37.9,38.5c0,24.1-14.3,40.8-37.9,40.8c-26.3,0-37.8-17.4-37.8-38.7C545.8,272.1,560.1,255.4,583.7,255.4
			L583.7,255.4z M583.7,322.5c14.2,0,22.3-12.1,22.3-27.6c0-17.4-9.4-27.3-22.3-27.3c-14.2,0-22.3,12.1-22.3,27.8
			C561.4,312.6,570.9,322.5,583.7,322.5z M645.5,322.6h8.6l0.4-55.1h-15.3l-0.6,10.9h-11.5l0.8-21.4h68.3l0.8,21.4h-11.6l-0.6-10.9
			h-15.3l-0.4,55.1h9v10.6h-32.8L645.5,322.6L645.5,322.6z M705.6,322.6h8.6l0.4-55.1h-9v-10.6h57.2l0.7,21.4h-11.3l-1-10.9h-21.6
			l-0.2,21.6h21.8v10.6h-22l-0.2,23h21.7l1.4-12.2h12.2l-1.4,22.8h-57.6V322.6z"/>
	</g>
</g>
</svg>
