<?xml version="1.0" encoding="utf-8"?>
<!-- Generator: Adobe Illustrator 16.0.0, SVG Export Plug-In . SVG Version: 6.00 Build 0)  -->
<!DOCTYPE svg PUBLIC "-//W3C//DTD SVG 1.1//EN" "http://www.w3.org/Graphics/SVG/1.1/DTD/svg11.dtd">
<svg version="1.1" id="Capa_1" xmlns="http://www.w3.org/2000/svg" xmlns:xlink="http://www.w3.org/1999/xlink" x="0px" y="0px"
	 width="1000px" height="1000px" viewBox="0 0 1000 1000" enable-background="new 0 0 1000 1000" xml:space="preserve">
<g>
	<g>
		<path fill="#848484" d="M396.857,661.804l30.606-49.378c7.346-11.834,3.673-27.137-8.162-34.482
			c-11.63-7.346-27.137-3.673-34.482,8.161l-30.605,49.378c-55.499,89.573-134.667,140.992-217.507,140.992H24.893
			C11.018,776.475,0,787.696,0,801.571c0,13.874,11.222,25.097,24.893,25.097h112.018
			C237.502,826.26,332.177,766.272,396.857,661.804z"/>
		<path fill="#848484" d="M992.45,181.085L871.251,59.682c-9.794-9.794-25.505-9.794-35.299,0s-9.794,25.505,0,35.299l78.759,78.76
			c-0.204,0-0.204,0-0.408,0h-115.69c-100.388,0-195.266,59.987-259.946,164.456l-18.772,30.402
			c-7.345,11.834-3.673,27.137,8.162,34.483c4.081,2.448,8.569,3.673,13.059,3.673c8.365,0,16.527-4.285,21.22-11.834l18.771-30.402
			c55.499-89.574,134.667-140.788,217.507-140.788H914.1c0.203,0,0.203,0,0.407,0l-78.759,78.759
			c-9.794,9.794-9.794,25.505,0,35.299c4.896,4.897,11.222,7.346,17.751,7.346s12.854-2.449,17.752-7.346l121.403-121.404
			C1002.244,206.59,1002.244,190.675,992.45,181.085z M939.196,199.041c0-0.204,0-0.204,0-0.408s0-0.204,0-0.408l0.408,0.408
			L939.196,199.041z"/>
		<path fill="#848484" d="M835.748,940.318c4.896,4.896,11.222,7.346,17.751,7.346s12.854-2.449,17.752-7.346l121.403-121.404
			c9.794-9.794,9.794-25.505,0-35.299L871.251,662.416c-9.794-9.794-25.505-9.794-35.299,0s-9.794,25.505,0,35.299l78.759,78.76
			c-0.203,0-0.203,0-0.408,0H802.285c-82.636,0-162.008-51.419-217.507-140.992L400.734,338.196
			C336.054,233.524,241.175,173.74,140.788,173.74H24.893C11.018,173.74,0,184.962,0,198.837c0,13.875,11.222,25.097,24.893,25.097
			h115.69c82.636,0,162.008,51.418,217.506,140.788l184.045,297.286c64.68,104.673,159.559,164.66,259.946,164.66H914.1
			c0.203,0,0.203,0,0.407,0l-78.759,78.76C826.158,914.813,826.158,930.524,835.748,940.318z M939.196,800.959l0.408,0.408
			l-0.408,0.408c0-0.204,0-0.204,0-0.408S939.196,801.163,939.196,800.959z"/>
	</g>
</g>
</svg>
