<?xml version="1.0" encoding="utf-8"?>
<!-- Generator: Adobe Illustrator 21.0.0, SVG Export Plug-In . SVG Version: 6.00 Build 0)  -->
<svg version="1.1" id="Layer_1" xmlns="http://www.w3.org/2000/svg" xmlns:xlink="http://www.w3.org/1999/xlink" x="0px" y="0px"
	 viewBox="0 0 915.5 344" style="enable-background:new 0 0 915.5 344;" xml:space="preserve">
<style type="text/css">
	.st0{fill:#495057;}
	.st1{fill:#FFFFFF;}
</style>
<g>
	<path class="st0" d="M457.8,312.9c205.4,0,372.1-62.8,372.1-140.9S663.5,31.1,457.8,31.1S85.6,94.4,85.6,172
		C85.6,250,252,312.9,457.8,312.9L457.8,312.9z"/>
	<path class="st1" d="M457.8,298.5c-197.6,0-357.8-56.3-357.8-126.1S260.2,45.5,457.8,45.5c198,0,358.2,57.1,358.2,126.9
		S655.7,298.5,457.8,298.5z"/>
	<path class="st0" d="M457.8,288.7c191.4,0,346.7-52.2,346.7-116.7c0-64.1-155.3-116.2-346.7-116.2S111.1,107.9,111.1,172
		C111.5,236.5,266.3,288.7,457.8,288.7L457.8,288.7z"/>
	<path class="st1" d="M548.5,195.4c16.4-15.2,25.5-31.6,48.9-31.2c14,0.4,17.7,11.5,20.1,16.4l30.8-52.2h18.9l-51.3,91.2
		c-0.8,2.1-3.3,5.3-3.3,8.2c0.4,4.5,6.2,3.3,4.1,3.3c10.3-0.4,29.2-20.1,33.7-25.1c0.8-1.2,2.5-3.3,3.7-3.3c0.8,0,2.9,0.8,2.9,2.5
		c0,0.8-2.1,4.5-3.7,6.6c-9.4,11.9-25.5,30.4-43.5,30.8c-9,0-12.3-3.7-13.6-10.7c-4.1,3.7-18.1,9.9-32,9.9
		c-11.9-0.4-16.4-7.4-18.9-12.7c-2.1-4.5-3.3-11.1-1.6-18.1c-6.6,3.3-12.3,3.7-20.9,3.7c-10.3-0.4-16.4-4.9-19.3-16.4
		c-11.5,20.9-11.9,21.8-23.8,44H459l26.3-44.4c3.3-6.2,4.9-10.7,6.2-16c0.8-2.9-1.2-5.3-4.5-5.8c-3.3,0-9,3.3-14,8.2
		c0,0-13.6,14.4-23.4,29.2c-9.4,14-25.5,29.6-43.1,29.6c-12.7,0-24.2-7-26.7-20.5c0,0-1.2,3.3-12.3,9.4c-0.8,0.4-3.3,2.1-4.1,1.6
		c-2.1-2.1-3.3-4.5-3.7-6.2c0.8,0.4,2.1-0.8,6.6-4.5c9-6.6,10.7-11.9,10.7-11.9c2.1-4.5,6.2-11.9,8.6-16.8
		c7.4-14.4,19.7-29.2,40.3-29.6c3.3,0,4.5,1.6,4.9,2.5c2.1,1.6,1.2,4.5,1.2,4.5c-14.4,2.1-24.2,10.7-30.4,18.9
		c-3.7,5.3-7.4,14-8.2,20.1c-1.6,10.7,3.7,18.1,11.1,19.7c14,2.1,25.5-7.8,34.5-23.4c2.5-4.1,4.1-14.8,4.1-20.5
		c0-5.8-3.3-11.9-5.3-14c0-4.1,2.5-6.6,5.8-6.6c0.8,0,2.1,0,2.9,0.8c4.9,4.9,7.4,14,7.4,20.9c0,2.5,0,4.9-0.4,7.4
		c10.3-12.3,23-27.9,32.9-31.2c2.1-0.8,3.7-0.8,5.8-0.8c18.1-0.4,15.6,16,15.6,16c9.4-11.1,16.4-15.2,25.1-14.8
		c9.4,0.4,13.1,7.4,13.1,12.3c-0.4,6.2-4.9,13.6-12.7,13.6c-7,0-11.1-3.3-13.1-9.4c-4.5,1.6-6.6,4.9-7.8,11.1
		c-1.6,7.8,4.5,14,12.3,14C538.3,205.7,544,199.9,548.5,195.4L548.5,195.4z M562.9,91.9c0,7.8-26.7,22.2-49.7,22.2
		c-35.7,0-72.7-17.3-89.5-20.9c-18.5-4.5-35.3-7.8-48.5-7.8c-46.4,0-67,20.1-66.1,38.2c0.4,7.4,6.6,12.3,15.2,10.7
		c9.4-1.6,23-10.7,26.3-18.9c0.8-1.6,2.5-2.1,3.3-1.6c1.6,1.2,0.8,2.9,0.8,2.9c-1.2,9.4-15.6,35.3-40.7,35.3
		c-14,0-23.4-13.1-23-25.9c0.4-23.8,24.6-47.6,84.2-47.6c11.1,0,23.8,0.8,37.8,3.3c16,2.9,56.3,9.4,88.7,10.3
		c11.9,0,27.5,0.4,39.8-1.6c13.1-2.1,10.3-2.5,15.6-2.5C562.9,88.2,562.9,89.8,562.9,91.9L562.9,91.9z"/>
	<path class="st0" d="M598.6,175.3c-8.2-0.8-18.9,6.2-27.5,16.8c-4.5,5.3-9,15.2-9.4,21.4c-0.8,6.2,0.8,11.9,2.9,13.6
		s11.9,6.6,26.7-8.2c8.2-8.2,16.4-22.2,16.4-22.2l-2.5-0.8C609.7,186.8,608.9,176.5,598.6,175.3z"/>
	<path class="st1" d="M423.2,146.9c0,2.5,3.7,4.9,6.6,4.9c-0.8,2.5-0.4,3.7-1.6,3.7c-7.4,0-10.3-7-10.3-7
		c-9.4,1.6-18.9,2.9-37.8,4.9c-47.6,77.2-62.8,90-92,90c-20.9,0-39.4-13.6-39.8-38.2c-0.4-14.8,11.9-33.3,34.1-38.6
		c2.5,0,3.7,0.8,3.7,2.5c0,0.8-0.8,2.1-3.3,3.3c-6.6,2.5-17.7,15.2-17.7,26.7c0,9,5.3,18.9,14.8,20.9c2.5,0.8,4.9,0.4,7.4,0.4
		c23.4,0,49.3-26.3,77.6-66.1c-4.5,0.4-23.8,2.5-28.8,7.8c-2.1,1.6-3.7,0.8-4.1-1.2c0-0.4,0.8-2.1,1.6-3.3
		c7.8-8.6,30.8-10.7,36.1-11.1c21.8-33.3,49.3-53.8,55-53.4c0.8,0,3.3,1.6,2.1,3.7c-0.4,0.4-2.5,3.3-3.7,3.7
		c-4.9,4.5-20.9,14.8-39,44.8c14.4-0.8,31.2-3.7,31.2-3.7s-0.8-3.3-0.8-5.8c0.8-10.3,6.6-16.4,14.4-15.2c4.5,0.8,7.4,4.5,7.4,8.2
		c0,4.1-3.3,10.3-6.2,13.1C428.2,144.1,426.1,145.7,423.2,146.9L423.2,146.9z"/>
	<path class="st0" d="M422,142c0,0,2.5,0.4,6.2-3.7c1.6-1.6,3.7-5.8,3.3-8.6c-0.4-1.6-0.8-3.3-2.5-2.9c-3.7,0.8-5.8,2.5-6.6,6.2
		C420.8,136.3,421.2,139.1,422,142L422,142z"/>
</g>
</svg>
