<?xml version="1.0" encoding="utf-8"?>
<!-- Generator: Adobe Illustrator 16.0.0, SVG Export Plug-In . SVG Version: 6.00 Build 0)  -->
<!DOCTYPE svg PUBLIC "-//W3C//DTD SVG 1.1//EN" "http://www.w3.org/Graphics/SVG/1.1/DTD/svg11.dtd">
<svg version="1.1" id="Layer_1" xmlns="http://www.w3.org/2000/svg" xmlns:xlink="http://www.w3.org/1999/xlink" x="0px" y="0px"
	 width="2500px" height="1125.112px" viewBox="0 661.261 2500 1125.112" enable-background="new 0 661.261 2500 1125.112"
	 xml:space="preserve">
<g>
	<path fill="#495057" d="M110.295,1475.324h88.233v97.014h157.621v-97.014h87.131v272.273h-87.131v-114.64H197.4v113.551h-87.105
		V1475.324L110.295,1475.324z M453.189,1475.324h85.977l90.412,104.73l89.311-104.73h84.887l-131.202,166.453v105.82h-87.092
		v-113.537L453.189,1475.324L453.189,1475.324z M814.8,1475.324h87.104v210.551h140.009c22.049,0,36.38-22.01,36.38-45.187v-165.364
		h87.079v217.178c0,34.163-38.572,54.007-60.634,54.007H814.8V1475.324L814.8,1475.324z M1184.113,1475.324h289.979
		c34.175,0,61.736,20.92,61.736,63.408v208.32l-87.093,0.545v-165.352c0-23.111-7.729-36.898-37.495-36.898h-131.189v202.859
		h-95.938V1475.324z M1562.299,1475.324h253.546c50.738,0,89.881,40.776,89.881,72.189v125.132
		c-0.558,22.036-31.439,74.939-70.011,74.939h-273.403v-272.262L1562.299,1475.324L1562.299,1475.324z M1651.038,1686.99h133.822
		c19.272,0,34.175-14.332,34.175-31.996v-79.362c0-19.299-15.861-30.829-36.225-30.829h-131.772V1686.99z M2013.231,1474.17h271.756
		v273.428h-97.04v-70.517H2020.91v70.517h-98.104v-177.504C1920.589,1510.589,1973.531,1474.17,2013.231,1474.17L2013.231,1474.17z
		 M2019.808,1571.261v44.046h167.595v-69.479h-141.149C2029.742,1545.84,2019.808,1555.788,2019.808,1571.261z M2302.613,1474.779
		h87.092v281.094h-87.092V1474.779z M1255.305,686.982c-361.415,0-654.415,144.665-654.415,323.063
		c0,178.412,293,323.09,654.415,323.09c361.39,0,654.402-144.664,654.402-323.09C1909.694,831.66,1616.682,686.982,1255.305,686.982
		L1255.305,686.982z M1193.219,758.887c74.692-26.406,296.605,0,382.803,41.399c27.586,26.459-123.006,111.463-302.312,148.31
		C1017.349,1000.293,1139.187,802.569,1193.219,758.887z M752.96,1141.689c-56.354-40.181-166.7-155.17,16.095-274.713
		c96.561-56.314,150.579-68.999,217.244-82.772c32.204-6.926,55.187,1.142,26.445,25.291
		c-60.919,63.228-187.374,272.403-198.853,318.421C804.67,1158.979,786.292,1166.98,752.96,1141.689L752.96,1141.689z
		 M1279.415,1275.07c-108.038,11.466-348.276-24.149-352.894-55.147c4.617-74.771,381.647-198.917,449.454-129.943
		C1404.742,1143.998,1349.568,1271.607,1279.415,1275.07z M1828.918,1057.749c-27.612,63.241-120.709,134.549-316.111,182.835
		c-29.922,6.848-40.259-11.518-20.727-28.767c32.218-19.532,187.4-279.317,206.933-331.079c11.505-26.459,33.333-16.07,47.146-5.746
		C1808.244,915.212,1855.363,980.748,1828.918,1057.749L1828.918,1057.749z"/>
</g>
</svg>
