<?xml version="1.0" encoding="utf-8"?>
<!-- Generator: Adobe Illustrator 16.0.0, SVG Export Plug-In . SVG Version: 6.00 Build 0)  -->
<!DOCTYPE svg PUBLIC "-//W3C//DTD SVG 1.1//EN" "http://www.w3.org/Graphics/SVG/1.1/DTD/svg11.dtd">
<svg version="1.1" id="Layer_1" xmlns="http://www.w3.org/2000/svg" xmlns:xlink="http://www.w3.org/1999/xlink" x="0px" y="0px"
	 width="1000px" height="260px" viewBox="0 370.5 1000 260" enable-background="new 0 370.5 1000 260" xml:space="preserve">
<g>
	<g>
		<g>
			<path fill="#495057" d="M82.521,458.739l-6.001,42.011H63.016l-5.251,38.26H9.752l14.253-102.025
				c3.001-19.505,10.503-35.259,22.506-45.762c12.003-11.253,28.507-16.504,48.012-16.504c18.755,0,32.258,5.251,39.76,15.004
				c7.502,9.752,9.752,25.506,6.751,45.762L126.782,539.01H79.52l14.253-100.525c0.75-6.001,0.75-10.502-0.75-12.753
				c-1.5-2.251-3.751-3.751-7.502-3.751c-7.502,0-12.003,5.251-13.503,16.504l-3.001,20.255H82.521z"/>
			<path fill="#495057" d="M168.042,423.48h44.261l-9.752,66.017c-0.75,6.752,1.5,10.503,7.502,10.503
				c5.251,0,9.002-3.001,9.752-9.752l9.002-66.017h43.511l-9.002,65.266c-2.25,15.004-9.002,27.757-20.255,38.26
				c-11.252,10.503-24.756,15.754-39.01,15.754c-16.504,0-29.257-6.001-37.509-18.004c-6.751-9.753-9.002-22.506-6.001-39.761
				L168.042,423.48z"/>
			<path fill="#495057" d="M343.586,379.22l-6.002,45.012h19.505l-6.751,45.761h-19.505c-1.501,9.003-0.751,15.754,1.5,19.505
				s7.502,5.252,15.754,5.252l-6.752,45.761c-2.25,0-3.751,0-5.251,0c-9.752,0-18.755-2.25-27.007-6.751
				s-14.253-10.503-18.754-18.755c-5.251-9.753-6.752-23.256-4.501-39.76l13.504-96.024H343.586z"/>
			<path fill="#495057" d="M434.358,419.73c16.504,0,30.008,6.001,40.511,18.004c10.502,12.003,14.253,26.257,12.003,42.761
				c-2.251,17.254-10.503,31.508-24.007,43.511c-13.503,12.003-29.257,18.005-45.761,18.005c-17.255,0-30.758-6.002-41.261-18.005
				c-10.502-12.003-14.253-26.257-12.003-43.511c2.251-17.254,10.503-31.508,24.006-43.511
				C401.351,425.731,417.104,419.73,434.358,419.73z M427.607,463.241c-4.502,0-9.003,1.5-12.754,5.251s-6.001,7.502-6.752,12.753
				c-0.75,4.501,0.751,9.003,3.001,12.753c3.001,3.751,6.752,5.252,11.253,5.252s9.002-1.501,12.753-5.252
				c3.751-3.75,6.002-7.501,6.752-12.753c0.75-5.251,0-9.002-3.001-12.753C435.859,464.741,432.108,463.241,427.607,463.241z"/>
			<path fill="#495057" d="M496.624,539.01l16.504-115.529c2.251-14.253,8.252-26.256,18.005-35.258
				c9.752-9.002,21.756-13.503,36.009-13.503c16.504,0,27.757,7.502,34.509,22.505c6.752-8.252,12.753-14.253,19.505-17.254
				c6.752-3.751,14.254-5.251,23.256-5.251c14.254,0,24.756,4.501,31.508,13.503c6.001,9.002,8.252,22.505,6.001,39.009
				L666.166,538.26h-47.262l15.004-104.276c0.75-5.251,0.75-8.252,0-10.503c-0.75-1.5-2.25-2.25-4.501-2.25
				c-4.501,0-7.502,3.751-9.002,12.003L605.401,538.26H557.39l15.003-104.276c0.751-5.251,0.751-8.252,0-10.503
				c-0.75-1.5-2.25-2.25-4.501-2.25c-4.501,0-7.502,4.501-9.002,12.753L543.886,538.26L496.624,539.01L496.624,539.01z"/>
			<path fill="#495057" d="M762.94,495.499l-6.751,45.762c-3.751,0.75-6.752,0.75-9.753,0.75c-17.254,0-31.508-6.002-41.261-17.255
				c-9.752-11.253-14.253-26.256-11.252-43.511c2.25-17.254,10.502-31.508,24.006-43.511c13.503-12.003,28.507-18.004,45.761-18.004
				c18.755,0,33.009,5.251,42.761,16.504c9.003,11.253,12.754,26.256,9.753,45.011l-8.252,57.015h-43.511l7.502-54.014
				c0.75-6.002,0-11.253-2.251-15.004s-6.002-5.251-11.253-5.251c-4.501,0-9.002,1.5-12.753,5.251s-6.002,7.502-6.752,12.003
				s0,9.003,3.001,12.003c3.001,3.001,6.001,4.501,11.253,4.501C755.438,498.5,759.189,496.999,762.94,495.499z"/>
			<path fill="#495057" d="M913.729,421.23l-6.752,47.262c-3-1.5-5.251-2.251-8.252-2.251c-8.252,0-12.753,6.002-14.254,18.005
				l-7.502,55.514h-44.261l9.003-63.766c2.25-17.255,9.002-30.008,19.504-40.51c10.503-9.753,24.006-15.004,39.01-15.004
				C903.977,419.73,908.477,419.73,913.729,421.23z"/>
			<path fill="#495057" d="M971.493,379.22l-6.002,45.012h19.505l-6.752,46.511H958.74c-1.501,9.003-0.751,15.755,1.5,19.506
				c2.25,3.75,7.502,5.251,15.754,5.251l-6.752,45.762c-2.25,0-3.751,0-5.251,0c-9.753,0-18.755-2.251-27.007-6.752
				s-14.254-10.503-18.755-18.755c-5.251-9.752-6.751-23.256-4.501-39.76l13.504-96.024
				C927.982,379.22,971.493,379.22,971.493,379.22z"/>
		</g>
	</g>
	<g>
		<path fill="#495057" d="M21.755,572.018h12.003c4.501,0,8.252,0.751,10.503,1.501s4.501,2.25,6.001,4.501
			c1.5,2.251,2.25,4.501,2.25,6.752c0,2.25-0.75,4.501-2.25,6.001c-1.5,1.501-3.001,3.751-5.251,4.501
			c3.001,0.751,5.251,2.251,6.751,3.001c1.5,1.501,3.001,3.001,3.751,4.501c0.75,1.501,1.5,3.751,1.5,6.002
			c0,4.501-1.5,7.502-5.251,10.503c-3.75,3-8.252,4.501-14.253,4.501H21.755V572.018z M27.007,577.27v16.504h3
			c3.751,0,6.752,0,9.002-0.75s3.751-1.501,4.501-3.001c0.75-1.5,1.5-3.001,1.5-4.501c0-2.251-0.75-4.501-3-5.251
			c-2.251-1.501-5.251-2.251-9.002-2.251L27.007,577.27L27.007,577.27z M27.007,599.024v20.256h7.502
			c4.501,0,7.502-0.751,9.752-1.501s3.751-2.25,4.501-3.751c1.5-1.5,1.5-3.001,1.5-5.251c0-2.251-0.75-4.501-2.25-6.002
			c-1.5-1.5-3.751-3-6.752-3.751c-2.25-0.75-5.251-0.75-10.502-0.75L27.007,599.024L27.007,599.024z"/>
		<path fill="#495057" d="M84.771,572.018h6.001v31.508c0,3.751,0,6.002,0,6.752c0,2.251,0.75,3.751,2.251,5.252
			c0.75,1.5,3,2.25,5.251,3.751c2.251,0.75,4.501,0.75,6.752,0.75s3.751,0,5.251-0.75c1.5-0.751,3.001-1.501,4.501-3.001
			c1.5-1.501,2.25-3.001,3-4.501c0.75-1.501,0.75-3.751,0.75-8.252v-31.509h6.001v31.509c0,4.501-0.75,8.252-1.5,11.252
			c-0.75,3.001-3.001,5.252-6.001,7.502c-3.001,2.251-6.752,3.001-11.253,3.001s-9.002-0.75-12.003-3.001
			c-3.751-2.25-6.001-4.501-6.751-8.252c-0.75-2.25-0.75-6.001-0.75-11.253L84.771,572.018L84.771,572.018z"/>
		<path fill="#495057" d="M150.788,572.018h6.752l15.003,21.756l15.004-21.756h6.752l-18.755,27.007v24.757h-6.001v-24.757
			L150.788,572.018z"/>
		<path fill="#495057" d="M287.322,570.518c9.002,0,16.504,3.001,22.505,8.252c6.002,5.252,9.003,12.003,9.003,19.505
			s-3.001,14.254-9.003,19.505c-6.001,5.252-13.503,8.252-21.755,8.252c-9.002,0-15.754-3.001-22.505-8.252
			c-6.001-5.251-9.002-12.003-9.002-19.505c0-5.251,1.5-9.752,3.751-13.503c3.001-4.501,6.752-7.502,11.253-9.753
			C276.819,572.018,282.07,570.518,287.322,570.518z M287.322,575.769c-4.501,0-8.252,0.751-12.753,3.001
			c-3.751,2.251-6.752,4.501-9.002,8.252s-3.001,7.502-3.001,11.253c0,6.002,2.251,11.253,7.502,15.754
			c5.251,4.501,10.503,6.002,17.254,6.002c4.501,0,9.002-0.75,12.753-3.001s6.752-4.501,9.002-8.252
			c2.251-3.751,3.001-7.502,3.001-11.253s-0.75-7.502-3.001-11.253c-2.25-3.001-5.251-6.001-9.002-8.252
			C296.324,576.52,291.823,575.769,287.322,575.769z"/>
		<path fill="#495057" d="M347.337,572.018h12.003c6.752,0,11.253,0,13.503,0.751c3.751,0.75,6.002,2.25,8.253,4.501
			c2.25,2.25,3,5.251,3,8.252s-0.75,5.251-2.25,7.502c-1.501,2.25-3.751,3.751-6.752,5.251c-3.001,0.75-6.752,1.501-11.253,1.501
			l21.005,24.006h-7.501l-21.006-24.006h-3.001v24.006h-6.001V572.018z M353.338,577.27v18.004h10.503c3.751,0,6.752,0,9.002-0.75
			c2.251-0.75,3.001-1.5,4.502-3.001c0.75-1.5,1.5-3,1.5-4.501c0-1.5-0.75-3-1.5-4.501c-0.751-1.5-2.251-2.25-4.502-3.001
			c-1.5-0.75-4.501-0.75-9.002-0.75L353.338,577.27L353.338,577.27z"/>
		<path fill="#495057" d="M446.361,614.028l5.252-3.001c3.751,6.002,7.502,8.253,12.003,8.253c2.25,0,3.751-0.751,5.251-1.501
			s3.001-1.5,3.751-3.001c0.75-1.5,1.5-3,1.5-4.501c0-1.5-0.75-3.751-2.25-5.251c-1.501-2.251-5.251-5.251-9.753-8.252
			c-5.251-3.001-8.252-6.002-9.002-6.752c-2.251-1.5-3.001-4.501-3.001-7.502c0-2.25,0.75-4.501,1.501-6.001
			c1.5-1.501,3-3.001,5.251-4.502c2.251-0.75,4.501-1.5,7.502-1.5s5.251,0.75,7.502,1.5c2.25,1.501,5.251,3.751,7.502,6.752
			l-4.501,3.751c-2.251-2.25-3.751-4.501-6.002-5.251c-1.5-0.75-3.001-1.501-5.251-1.501c-2.251,0-4.501,0.751-6.002,2.251
			c-1.5,1.5-2.25,3.001-2.25,4.501c0,1.501,0,2.251,0.75,3.001s1.5,2.25,3.001,3.751c0.75,0.75,3,2.25,7.502,5.251
			c5.251,3.001,8.252,6.002,10.502,9.002c2.251,2.251,3.001,5.252,3.001,7.502c0,3.751-1.501,6.752-5.251,9.753
			c-3.001,3.001-7.502,4.501-12.004,4.501c-3.75,0-6.751-0.75-9.752-2.25C451.613,620.78,448.612,617.779,446.361,614.028z"/>
		<path fill="#495057" d="M510.128,572.018h33.758v5.252h-27.757v16.504h27.757v5.251h-27.757v20.256h27.757v5.251h-33.758
			C510.128,623.781,510.128,572.018,510.128,572.018z"/>
		<path fill="#495057" d="M570.143,572.018h6.002v47.263h22.505v5.251h-28.507V572.018z"/>
		<path fill="#495057" d="M624.906,572.018h6.002v47.263h22.505v5.251h-28.507V572.018L624.906,572.018z"/>
		<path fill="#495057" d="M773.443,581.771l-4.501,3.001c-2.251-3.001-6.002-5.252-9.002-6.752c-3.751-1.5-7.502-2.251-12.003-2.251
			c-4.502,0-9.003,0.751-12.754,3.001c-3.751,2.251-6.752,4.501-9.002,8.252c-2.251,3.001-3.001,7.502-3.001,11.253
			c0,6.002,2.251,11.253,7.502,15.754s11.253,6.002,18.755,6.002c8.252,0,15.004-3.001,21.005-8.252l4.501,3
			c-3,3.001-6.751,6.002-11.252,7.502c-4.502,1.501-9.003,3.001-15.004,3.001c-10.503,0-18.755-3.001-24.757-9.002
			c-5.251-5.252-7.502-11.253-7.502-18.755s3.001-14.254,9.003-19.505c6.001-5.251,13.503-7.502,22.506-7.502
			c5.251,0,10.502,0.75,15.003,3.001C766.691,575.019,770.442,578.02,773.443,581.771z"/>
		<path fill="#495057" d="M825.206,572.018l27.757,51.764h-6.001l-9.003-17.255h-25.506l-9.002,17.255h-6.752l27.757-51.764H825.206
			z M824.456,582.521l-10.503,18.755h20.256L824.456,582.521z"/>
		<path fill="#495057" d="M879.22,572.018h12.003c6.752,0,11.253,0,13.504,0.751c3.75,0.75,6.751,2.25,8.252,4.501
			c2.25,2.25,3,5.251,3,8.252s-0.75,5.251-2.25,7.502c-1.5,2.25-3.751,3.751-6.752,5.251c-3.001,0.75-6.752,1.501-11.253,1.501
			l21.006,24.006h-7.502l-21.006-24.006h-3.001v24.006h-6.001V572.018z M884.471,577.27v18.004h10.503c3.751,0,6.752,0,9.003-0.75
			c2.25-0.75,3.75-1.5,4.5-3.001c0.751-1.5,1.501-3,1.501-4.501c0-1.5-0.75-3-1.501-4.501c-0.75-1.5-2.25-2.25-4.5-3.001
			c-1.501-0.75-4.502-0.75-9.003-0.75L884.471,577.27L884.471,577.27z"/>
		<path fill="#495057" d="M938.484,614.028l5.252-3.001c3.75,6.002,7.502,8.253,12.003,8.253c2.25,0,3.751-0.751,5.251-1.501
			s3.001-1.5,3.751-3.001c0.75-1.5,1.5-3,1.5-4.501c0-1.5-0.75-3.751-2.25-5.251c-1.501-2.251-5.252-5.251-10.503-8.252
			s-8.252-6.002-9.002-6.752c-2.251-2.251-3.001-5.251-3.001-8.252c0-2.251,0.75-4.501,1.5-6.002c1.501-1.5,3.001-3,5.251-4.501
			c2.251-0.75,4.502-1.5,7.502-1.5c3.001,0,5.252,0.75,7.502,1.5c2.251,1.501,5.252,3.751,7.502,6.752l-3,4.501
			c-2.251-2.25-3.751-4.501-6.002-5.251c-1.5-0.75-3.001-1.501-5.251-1.501c-2.251,0-4.501,0.751-6.002,2.251
			c-1.5,1.5-2.25,3.001-2.25,4.501c0,1.501,0,2.251,0.75,3.001s1.5,2.25,3.001,3.751c0.75,0.75,3,2.25,7.502,5.251
			c5.251,3.001,8.252,6.002,10.502,9.002c1.5,2.251,3.001,5.252,3.001,7.502c0,3.751-1.501,6.752-4.501,9.753
			c-3.001,3.001-7.502,4.501-12.003,4.501c-3.751,0-6.752-0.75-9.753-2.25C943.736,620.78,941.485,617.779,938.484,614.028z"/>
	</g>
</g>
</svg>
