<?xml version="1.0" encoding="utf-8"?>
<!-- Generator: Adobe Illustrator 21.0.0, SVG Export Plug-In . SVG Version: 6.00 Build 0)  -->
<svg version="1.1" id="Layer_1" xmlns="http://www.w3.org/2000/svg" xmlns:xlink="http://www.w3.org/1999/xlink" x="0px" y="0px"
	 viewBox="0 0 1000 260" style="enable-background:new 0 0 1000 260;" xml:space="preserve">
<style type="text/css">
	.st0{fill:#495057;}
</style>
<g>
	<path class="st0" d="M510.4,101.7c-30.1,63.4-88.8,83.2-98.8,86.2v66.2c83.9-4.5,97-26.2,156-110.9C618.8,70,675.2,71.4,690,73.2
		V5.8C619.4,7.4,542.8,33.5,510.4,101.7z"/>
	<path class="st0" d="M597.7,124.1c-2,2.4-4,4.9-6,7.2c-4.4,5.2-9.4,9.9-14.4,14.6c-9.4,8.9-20.9,18.6-26.3,30.8
		c41,57.2,61,73.6,132.5,77.4v-66.2C674.9,185.4,629.2,170,597.7,124.1z"/>
	<path class="st0" d="M518.3,66c6.4-6.7,12.3-14,17.6-21.8C498.8,18.1,450.8,6.8,405.2,5.8v67.3c11-1.4,44.7-2.5,82.3,26.8
		C496,87.3,507.7,77,518.3,66z"/>
	<rect x="313.6" y="100.3" class="st0" width="64.4" height="153.9"/>
	<circle class="st0" cx="345.8" cy="41.6" r="35.8"/>
</g>
</svg>
