<?xml version="1.0" encoding="utf-8"?>
<!-- Generator: Adobe Illustrator 21.0.0, SVG Export Plug-In . SVG Version: 6.00 Build 0)  -->
<svg version="1.1" id="Layer_1" xmlns="http://www.w3.org/2000/svg" xmlns:xlink="http://www.w3.org/1999/xlink" x="0px" y="0px"
	 viewBox="0 0 915.5 344" style="enable-background:new 0 0 915.5 344;" xml:space="preserve">
<style type="text/css">
	.st0{fill:#495057;}
</style>
<path class="st0" d="M464.3,33.3c-14,17.3-54.1,73.2-58.7,80.5c-8.8,13.9-9.6,20.6-9.8,25.1c-0.3,4.4-0.3,12.3,6.9,18.8
	c12,10.7,28.8,9,43.7,9h122.8c5.3,0,6.8-1.6,9.7-5.3c9.8-15,14.2-31.3,14.2-45.8c0-31.2-20.2-70.5-71.5-88.2l-5.8,8.3
	c40.7,19.3,57.5,44.5,57.5,79.9c0.3,9.5-2.2,19.7-8.4,29.2H445.3c-7.2,0-8.2-8.1-5.6-12.7c10.2-18.2,21.7-35.8,34.2-52.5
	c12.1-16.1,24-31.2,36.4-47c3.4-4.4,1.1-8.6-5.6-10c-14-2.9-28.5-5-46.2-5c-98,0-133.8,56.3-133.8,98c0,45.2,36.1,97.7,134.1,97.7
	c54.4,0,90-17.5,110.6-40h-20.8c-18,16.6-48.9,28.4-89.8,28.4c-83,0-113.6-46.6-113.6-86.8c0.6-35.8,33.4-85.3,115.6-86.9
	C464,27.8,466.5,30.6,464.3,33.3L464.3,33.3z M759,291.5c4.9,0.7,8.7,4.6,8.7,9.1c0,5.2-4.7,9.3-10.3,9.3H652.1v-68.8h-31v69h-57
	c-15.4,0-18.6-9.4-18.6-18v-51.4h-51.4c-5.1,3.4-10,7.2-15.3,10.4l-30.5,18.8l-39.6-29h-61.7v17.3h22.3v-9.5l52.5,37.7l-35.8,22.5
	h-38.9v17.3h45.1c4.8-3.3,9.4-6.7,14.4-9.7l31.4-19l39.8,28.4h45.3l-59.9-45.1l30.8-20.1c6.6-4.3,13.4-7.9,20.2-11.9v45.3
	c0,19.1,4.9,32.4,43.4,32.4l217.6-0.5c16.8,0.3,27.6-11.4,27.6-25.4c0-14-12.4-25.4-27.6-25.4h-78.6c1-9.6,9.3-17.6,17.7-17.6h79.5
	l-0.3-16.6h-84.4c-26.7,0-48.1,22.1-48.7,47.9c-0.1,1.8,1.1,2.9,3.1,2.9L759,291.5L759,291.5z M346.9,291.3v-17.7h15.3v17.7H346.9z
	 M346.9,240.9h-58.2c-15.8,0-27.9,4.1-36.9,11.2c-16.1,12.8-21.3,26.2-21.1,32.2h21c-9.2,6.9-15.4,15.2-18.7,24.7H164
	c-12.4,0-20.4-8.8-20.4-17.3v-51.4h-30.5v53.4c0,19.2,18.3,32.5,47.6,32.5h186.2v-17.3h-73.9c0.3-8.8,9.7-17.7,18.3-17.7h55.7v-17.7
	h-74.8c-1-5.2,8.6-15.3,16-15.3h58.8V240.9L346.9,240.9z"/>
</svg>
