<?xml version="1.0" encoding="utf-8"?>
<!-- Generator: Adobe Illustrator 21.0.0, SVG Export Plug-In . SVG Version: 6.00 Build 0)  -->
<svg version="1.1" id="Layer_1" xmlns="http://www.w3.org/2000/svg" xmlns:xlink="http://www.w3.org/1999/xlink" x="0px" y="0px"
	 viewBox="0 0 2500 356" style="enable-background:new 0 0 2500 356;" xml:space="preserve">
<style type="text/css">
	.st0{fill:#FFFFFF;}
</style>
<g>
	<path class="st0" d="M1000.5,182.1l33.8-78.7h-32.8c-19.3,0-37.3,10.6-48.6,36.9l-18,41.8L1000.5,182.1L1000.5,182.1z M889.9,62.5
		c29-25.7,73.7-45.8,113.5-45.8h179.9l-133.4,310.7H938.1l37.5-87.3h-65.5l-37.5,87.3H760.2l73.8-172
		C850.8,116.2,859.6,88.2,889.9,62.5z"/>
	<path class="st0" d="M110.3,327.3h126.3l38.3-93.6H148.6L110.3,327.3z"/>
	<path class="st0" d="M809.5,63.5c-7.9-26.5-32-46.8-85.1-46.8H410.1L282.8,327.3h112.7l94.9-231.7h19.4c31.7,0,27.4,10.7,16.7,36.6
		l-79.9,195h106.9l94.9-231.7H668c32.4,0,27.4,10.7,16.7,36.6l-79.9,195h113.4L788,157.1C807.4,109.7,817.6,89.5,809.5,63.5
		L809.5,63.5z M1174.1,113.1c-24.3,59.2,8.6,97.5,66.9,97.5h47.9c13.6,0,17.6,6.2,14.8,13l-1.1,2.8c-3,7.3-10.7,13.5-30.2,13.5
		h-141.9l-35.8,87.4h160c74.5,0,138-47.4,155.1-89.1l8.8-21.4c16.9-41.2,1.9-93-67.5-93H1296c-7.1,0-13.5-5.1-10.2-13
		c3.9-9.6,12.5-14.7,22.2-14.7h137.3l32.6-79.5H1325C1265.4,16.7,1199,52.3,1174.1,113.1L1174.1,113.1z M1571.9,179.6l9.2-22.5
		c7.2-17.5,20.3-41.6,28-49.4c8.4-8.4,14.3-11.8,29.3-12h93.6l32.3-78.9h-122.4c-41.5,0-82.2,22-110.1,47.4
		c-27.6,23.1-46.2,49.6-66.8,99.8l-7.8,19.2c-20.3,49.6-22.1,76.1-15.6,99.8c7,27.1,32.9,44.5,73.1,44.5h122.4l35.8-87.4h-95.2
		c-14.3,0-16.2-7.4-17.2-11.8C1558.2,216.3,1565,196.6,1571.9,179.6L1571.9,179.6z M1706.8,281.1c7.5,25.9,35.5,46.2,75.6,46.2
		h181.4l127.3-310.6h-112.7l-91.5,223.2h-33c-19.4,0-28.7-10.7-17.8-37.2l76.2-186h-113.4l-70,170.8
		C1712.8,227,1698,255.2,1706.8,281.1L1706.8,281.1z M2085.9,113.1c-24.2,59.2,8.6,97.5,66.9,97.5h47.9c13.6,0,17.6,6.2,14.8,13
		l-1.1,2.8c-3,7.3-10.7,13.5-30.2,13.5h-141.9l-35.8,87.4h160c74.5,0,138-47.4,155.1-89.1l8.8-21.4c16.9-41.2,1.8-93-67.5-93h-55.1
		c-7.1,0-13.5-5.1-10.2-13c3.9-9.6,12.5-14.7,22.2-14.7h137.3l32.6-79.5h-152.9C2177.2,16.7,2110.8,52.3,2085.9,113.1L2085.9,113.1z
		"/>
</g>
</svg>
