<?xml version="1.0" encoding="utf-8"?>
<!-- Generator: Adobe Illustrator 16.0.0, SVG Export Plug-In . SVG Version: 6.00 Build 0)  -->
<!DOCTYPE svg PUBLIC "-//W3C//DTD SVG 1.1//EN" "http://www.w3.org/Graphics/SVG/1.1/DTD/svg11.dtd">
<svg version="1.1" id="Layer_1" xmlns="http://www.w3.org/2000/svg" xmlns:xlink="http://www.w3.org/1999/xlink" x="0px" y="0px"
	 width="925px" height="136px" viewBox="37.5 430.5 925 136" enable-background="new 37.5 430.5 925 136" xml:space="preserve">
<g>
	<path fill="#495057" d="M400.2,501.64l13.52-31.479H400.6c-7.72,0-14.92,4.24-19.439,14.76l-7.2,16.72H400.2L400.2,501.64z
		 M355.96,453.8c11.601-10.28,29.48-18.319,45.4-18.319h71.96L419.96,559.76h-44.72l15-34.92h-26.2l-15,34.92h-44.96l29.52-68.8
		C340.32,475.28,343.84,464.08,355.96,453.8z"/>
	<path fill="#495057" d="M44.12,559.72h50.52l15.32-37.439H59.44L44.12,559.72z"/>
	<path fill="#495057" d="M323.8,454.2c-3.16-10.601-12.8-18.72-34.04-18.72H164.04L113.12,559.72h45.08l37.96-92.68h7.76
		c12.68,0,10.96,4.28,6.68,14.64l-31.96,78h42.76L259.36,467h7.84c12.96,0,10.96,4.28,6.68,14.64l-31.96,78h45.36l27.92-68
		C322.96,472.68,327.04,464.6,323.8,454.2L323.8,454.2z M469.64,474.04c-9.72,23.68,3.44,39,26.761,39h19.159
		c5.44,0,7.04,2.479,5.921,5.2l-0.44,1.12c-1.2,2.92-4.28,5.399-12.08,5.399H452.2l-14.32,34.96h64c29.8,0,55.2-18.96,62.04-35.64
		l3.521-8.561c6.76-16.479,0.76-37.199-27-37.199H518.4c-2.841,0-5.4-2.04-4.08-5.2c1.56-3.84,5-5.88,8.88-5.88h54.92l13.04-31.8
		H530C506.16,435.48,479.6,449.72,469.64,474.04L469.64,474.04z M628.76,500.64l3.681-9c2.88-7,8.119-16.64,11.199-19.76
		c3.36-3.36,5.721-4.72,11.721-4.8H692.8l12.92-31.561h-48.96c-16.6,0-32.88,8.801-44.04,18.961
		c-11.04,9.239-18.479,19.84-26.72,39.92l-3.12,7.68c-8.12,19.84-8.84,30.439-6.24,39.92c2.801,10.84,13.16,17.8,29.24,17.8h48.96
		l14.32-34.96h-38.08c-5.72,0-6.48-2.96-6.88-4.72C623.28,515.32,626,507.44,628.76,500.64L628.76,500.64z M682.72,541.24
		c3,10.359,14.2,18.479,30.24,18.479h72.56L836.44,435.48h-45.08L754.76,524.76h-13.199c-7.761,0-11.48-4.279-7.12-14.88
		l30.479-74.399h-45.36l-28,68.319C685.12,519.6,679.2,530.88,682.72,541.24L682.72,541.24z M834.36,474.04
		c-9.681,23.68,3.439,39,26.76,39h19.16c5.439,0,7.04,2.479,5.92,5.2l-0.44,1.12c-1.2,2.92-4.279,5.399-12.08,5.399h-56.76
		l-14.32,34.96h64c29.801,0,55.2-18.96,62.04-35.64l3.521-8.561c6.76-16.479,0.72-37.199-27-37.199h-22.04
		c-2.841,0-5.4-2.04-4.08-5.2c1.56-3.84,5-5.88,8.88-5.88h54.92l13.04-31.8h-61.16C870.88,435.48,844.32,449.72,834.36,474.04
		L834.36,474.04z"/>
</g>
</svg>
