<?xml version="1.0" encoding="utf-8"?>
<!-- Generator: Adobe Illustrator 21.0.0, SVG Export Plug-In . SVG Version: 6.00 Build 0)  -->
<svg version="1.1" id="Layer_1" xmlns="http://www.w3.org/2000/svg" xmlns:xlink="http://www.w3.org/1999/xlink" x="0px" y="0px"
	 viewBox="0 0 2500 440" style="enable-background:new 0 0 2500 440;" xml:space="preserve">
<style type="text/css">
	.st0{fill:#FFFFFF;}
</style>
<g>
	<path class="st0" d="M309.9,405c-32.6-20.4-56.6-90.9-56.6-174.7c0-3.1,0-6.1,0.1-9.1l0,0C162.7,207,97.1,167.9,95.5,121.7
		l-0.3,0.5c-22.2,27.6-34.9,59.5-34.9,93.5c0,100,109.8,181.9,249,189.2L309.9,405z M18.4,223c0-111.9,139.2-202.6,311-202.6
		c171.8,0,311,90.7,311,202.6c0,111.9-139.2,202.6-311,202.6C157.6,425.6,18.4,334.9,18.4,223L18.4,223z M329.4,49.6
		c33.2,0,61.4,50.3,71.8,120.5l0-0.1c64.5-10,109.7-33.2,109.7-60.2c0-36.2-81.3-65.5-181.5-65.5c-100.2,0-181.5,29.3-181.5,65.5
		c0,27,45.2,50.1,109.7,60.2l0,0.1C268,99.9,296.3,49.6,329.4,49.6L329.4,49.6z M349.5,404.9c139.2-7.3,249-89.2,249-189.2
		c0-34-12.7-65.9-34.9-93.5l-0.3-0.5c-1.7,46.2-67.2,85.3-157.9,99.5l0,0c0.1,3,0.1,6.1,0.1,9.1c0,83.8-24,154.3-56.6,174.7
		L349.5,404.9z M329.4,175.3c14.4,0,28.8-0.6,43.1-1.8l0,0c-6.9-45-23.6-76.7-43.1-76.7c-19.5,0-36.2,31.8-43.1,76.7l0,0
		C300.6,174.7,315,175.3,329.4,175.3L329.4,175.3z M329.4,341.9c25,0,45.3-52,46.4-117.1l0.1,0c-31,2.9-62.1,2.9-93.1,0l0.1,0
		C284.1,290,304.4,341.9,329.4,341.9z M1605.4,223c0-85.5,69.3-154.8,154.8-154.8c85.5,0,154.9,69.3,154.9,154.8
		c0,85.5-69.3,154.8-154.9,154.8C1674.7,377.8,1605.4,308.5,1605.4,223L1605.4,223z M1760.2,321.1c47.8,0,86.5-43.9,86.5-98.1
		c0-54.1-38.7-98.1-86.5-98.1s-86.5,43.9-86.5,98.1C1673.8,277.2,1712.5,321.1,1760.2,321.1z M2090.8,132.7v238.2h-65.3V132.7h0.2
		h-91.2V78.8h247.3v53.8H2090.8z M2260.8,305.1L2260.8,305.1l-25.1,65.7h-76.2l120.5-292h81.2l120.5,292h-76.2l-25-65.6l-0.1-0.1
		H2260.8z M2320.6,255.8h41.1l0,0L2320.8,149h-0.6l-40.8,106.9l0,0H2320.6z M888.1,132.7v238.2h-65.3V132.7h0.2h-91.3V78.8h247.3
		v53.8H888.1L888.1,132.7z M995.8,223c0-85.5,69.3-154.8,154.9-154.8c85.5,0,154.9,69.3,154.9,154.8c0,85.5-69.3,154.8-154.9,154.8
		C1065.2,377.8,995.8,308.5,995.8,223z M1150.7,321.1c47.7,0,86.5-43.9,86.5-98.1c0-54.1-38.7-98.1-86.5-98.1
		c-47.8,0-86.5,43.9-86.5,98.1C1064.2,277.2,1102.9,321.1,1150.7,321.1z M1455.5,370.8h33.1V260l113.8-181.1h-76.2l-70.7,122.7
		l-70.7-122.7h-76.2L1422.4,260v110.9L1455.5,370.8L1455.5,370.8z"/>
</g>
</svg>
