<?xml version="1.0" encoding="utf-8"?>
<!-- Generator: Adobe Illustrator 16.0.0, SVG Export Plug-In . SVG Version: 6.00 Build 0)  -->
<!DOCTYPE svg PUBLIC "-//W3C//DTD SVG 1.1//EN" "http://www.w3.org/Graphics/SVG/1.1/DTD/svg11.dtd">
<svg version="1.1" id="Layer_1" xmlns="http://www.w3.org/2000/svg" xmlns:xlink="http://www.w3.org/1999/xlink" x="0px" y="0px"
	 width="915.5px" height="344px" viewBox="0 -169 915.5 344" enable-background="new 0 -169 915.5 344" xml:space="preserve">
<g>
	<path fill="#495057" d="M431.69,1.09c-13.04-8.16-22.641-36.36-22.641-69.88c0-1.24,0-2.44,0.04-3.64l0,0
		c-36.279-5.681-62.52-21.32-63.159-39.801l-0.12,0.2c-8.88,11.04-13.96,23.8-13.96,37.4c0,40,43.92,72.76,99.6,75.68L431.69,1.09z
		 M315.09-71.71c0-44.76,55.681-81.04,124.4-81.04s124.4,36.28,124.4,81.04S508.21,9.33,439.49,9.33S315.09-26.95,315.09-71.71
		L315.09-71.71z M439.49-141.07c13.28,0,24.56,20.12,28.72,48.2v-0.04c25.8-4,43.88-13.28,43.88-24.08
		c0-14.479-32.52-26.2-72.6-26.2s-72.6,11.722-72.6,26.2c0,10.8,18.08,20.04,43.88,24.08v0.04
		C414.931-120.95,426.25-141.07,439.49-141.07L439.49-141.07z M447.53,1.05c55.68-2.92,99.6-35.68,99.6-75.68
		c0-13.602-5.08-26.36-13.96-37.4l-0.12-0.2c-0.68,18.48-26.88,34.12-63.159,39.802l0,0c0.04,1.198,0.04,2.438,0.04,3.64
		c0,33.52-9.601,61.72-22.641,69.88L447.53,1.05z M439.49-90.79c5.76,0,11.52-0.24,17.24-0.72l0,0
		c-2.76-18-9.44-30.682-17.24-30.682s-14.48,12.722-17.24,30.682l0,0C427.971-91.03,433.73-90.79,439.49-90.79L439.49-90.79z
		 M439.49-24.15c10,0,18.12-20.8,18.56-46.84h0.04c-12.399,1.16-24.84,1.16-37.239,0h0.04C421.37-44.91,429.49-24.15,439.49-24.15z
		 M457.23,96.83c0-34.2,27.72-61.92,61.92-61.92s61.96,27.72,61.96,61.92s-27.72,61.92-61.96,61.92
		C484.95,158.75,457.23,131.03,457.23,96.83L457.23,96.83z M519.15,136.07c19.12,0,34.6-17.562,34.6-39.24
		c0-21.642-15.479-39.24-34.6-39.24s-34.6,17.56-34.6,39.24C484.59,118.51,500.07,136.07,519.15,136.07z M651.391,60.71v95.28
		h-26.12V60.71h0.08h-36.48V39.149h98.92v21.521h-36.399V60.71z M719.391,129.67L719.391,129.67l-10.04,26.28h-30.48l48.2-116.801
		h32.48L807.75,155.95h-30.479l-10-26.24l-0.04-0.04H719.391L719.391,129.67z M743.311,109.95h16.438l0,0l-16.358-42.721h-0.24
		l-16.32,42.762l0,0h16.48V109.95z M170.311,60.71v95.28h-26.12V60.71h0.08H107.75V39.149h98.92v21.521h-36.359V60.71z
		 M213.391,96.83c0-34.2,27.72-61.92,61.96-61.92c34.2,0,61.96,27.72,61.96,61.92s-27.722,61.92-61.96,61.92
		C241.15,158.75,213.391,131.03,213.391,96.83z M275.351,136.07c19.08,0,34.6-17.562,34.6-39.24c0-21.642-15.479-39.24-34.6-39.24
		s-34.602,17.56-34.602,39.24C240.75,118.51,256.23,136.07,275.351,136.07z M397.271,155.95h13.24v-44.32l45.52-72.44h-30.479
		l-28.28,49.08l-28.28-49.08h-30.479l45.52,72.44v44.36L397.271,155.95L397.271,155.95z"/>
</g>
</svg>
