<?xml version="1.0" encoding="utf-8"?>
<!-- Generator: Adobe Illustrator 21.0.0, SVG Export Plug-In . SVG Version: 6.00 Build 0)  -->
<svg version="1.1" id="Layer_1" xmlns="http://www.w3.org/2000/svg" xmlns:xlink="http://www.w3.org/1999/xlink" x="0px" y="0px"
	 viewBox="0 0 400 400" style="enable-background:new 0 0 400 400;" xml:space="preserve">
<style type="text/css">
	.st0{fill:#FF1A50;}
	.st1{fill:#7D40C5;}
	.st2{fill:#FFFFFF;}
	.st3{fill:#0063FF;}
</style>
<g>
	<path class="st0" d="M177.1,155.6h78c4.2,0,8.2,0.4,12.2,1v-56.1c0-45.4-37.2-82.6-82.6-82.6h-78c-24.5,0-44.4,19.9-44.4,44.4V200
		c0,24.5,19.9,44.4,44.4,44.4h26V200C132.7,175.5,152.6,155.6,177.1,155.6z"/>
	<path class="st1" d="M268,161.4v-5.2c-4-0.6-8.2-1-12.4-1h-78.8c-24.8,0-44.8,20.1-44.8,44.8v44.8h52.5
		C230.4,244.8,268,207.3,268,161.4z"/>
	<path class="st2" d="M166.1,84.9h-15.3c-4.8,0-8.7,3.9-8.7,8.7v27c0,4.8,3.9,8.7,8.7,8.7h5.1h10.2c8.9,0,16.2-7.3,16.2-16.2v-1v-11
		C182.3,92.2,175,84.9,166.1,84.9z"/>
	<path class="st3" d="M267.3,156.7v5.1c0,45.4-37.2,82.6-82.6,82.6h-52v10.9H85.6c-10.7,0-19.5,8.8-19.5,19.5
		c0,10.7,8.8,19.5,19.5,19.5h47.1v13.7H85.6c-10.7,0-19.5,8.8-19.5,19.5c0,10.7,8.8,19.5,19.5,19.5h48.1
		c4.3,20.1,22.1,35.1,43.4,35.1h78c45.4,0,82.6-37.2,82.6-82.6v-61.2C337.7,197,307,162.6,267.3,156.7z"/>
</g>
</svg>
