<?xml version="1.0" encoding="utf-8"?>
<!-- Generator: Adobe Illustrator 21.0.0, SVG Export Plug-In . SVG Version: 6.00 Build 0)  -->
<svg version="1.1" id="Layer_1" xmlns="http://www.w3.org/2000/svg" xmlns:xlink="http://www.w3.org/1999/xlink" x="0px" y="0px"
	 viewBox="0 0 25 25" style="enable-background:new 0 0 25 25;" xml:space="preserve">
<style type="text/css">
	.st0{fill:#CED4DA;}
</style>
<title>Page-1</title>
<path class="st0" d="M17.3,10.6c0-1.9-0.7-3.4-2-4.8c-1.3-1.3-2.9-2-4.8-2c-1.9,0-3.4,0.7-4.8,2c-1.3,1.3-2,2.9-2,4.8s0.7,3.4,2,4.8
	c1.3,1.3,2.9,2,4.8,2s3.4-0.7,4.8-2S17.3,12.4,17.3,10.6z M25,23.1c0,0.5-0.2,1-0.6,1.4C24,24.8,23.6,25,23.1,25
	c-0.5,0-1-0.2-1.4-0.6l-5.1-5.1c-1.8,1.2-3.8,1.9-6,1.9c-1.4,0-2.8-0.3-4.1-0.8C5.2,19.8,4,19,3.1,18.1c-0.9-0.9-1.7-2.1-2.3-3.4
	C0.3,13.4,0,12,0,10.6c0-1.4,0.3-2.8,0.8-4.1C1.4,5.2,2.1,4,3.1,3.1s2.1-1.7,3.4-2.3C7.8,0.3,9.2,0,10.6,0c1.4,0,2.8,0.3,4.1,0.8
	c1.3,0.6,2.4,1.3,3.4,2.3s1.7,2.1,2.3,3.4c0.6,1.3,0.8,2.7,0.8,4.1c0,2.2-0.6,4.2-1.9,6l5.1,5.1C24.8,22.1,25,22.5,25,23.1z"/>
</svg>
