<?xml version="1.0" encoding="utf-8"?>
<!-- Generator: Adobe Illustrator 21.0.0, SVG Export Plug-In . SVG Version: 6.00 Build 0)  -->
<svg version="1.1" id="Layer_1" xmlns="http://www.w3.org/2000/svg" xmlns:xlink="http://www.w3.org/1999/xlink" x="0px" y="0px"
	 viewBox="0 0 2092 2500" style="enable-background:new 0 0 2092 2500;" xml:space="preserve">
<style type="text/css">
	.st0{fill:none;}
	.st1{fill:#FFFFFF;}
</style>
<path class="st0" d="M1599.2,1038.5c-100.7-3.5-129.1,81-137.7,149.9c31.9-5.1,64.3-7,96.6-5.8c63.4,2.2,121.6,15.6,168.6,36.5
	C1726.2,1147.7,1710.7,1042.3,1599.2,1038.5L1599.2,1038.5z"/>
<path class="st1" d="M209.1,484.2h234.8c13.4,0,24.2-10.9,24.3-24.3c0-0.1-2.8-201.2-2.8-257.1v-0.7c0-45.9,9.6-85.9,26.5-119.5
	l8-15c-1,0.2-2,0.7-2.7,1.5L41.2,521.1c-0.8,0.7-1.4,1.6-1.7,2.7c9.4-4.7,22.3-11.1,24.1-11.9C103.3,494,151.5,484.2,209.1,484.2
	L209.1,484.2z"/>
<path class="st1" d="M2034.8,435c-18.6-99.7-78-148.9-131.6-168.3c-57.8-20.9-175.2-42.6-322.6-59.9c-118.6-14-258-12.8-342.2-10.3
	c-10.1-69.2-58.6-132.5-113-154.3C980.8-16.1,757.1-2,699.7,14.1C654,26.9,603.5,53,575.5,93.2c-18.8,26.9-31.1,61.4-31.2,109.5
	c0,27.2,0.8,91.4,1.5,148.5c0.7,57.2,1.5,108.4,1.5,108.7c-0.1,51-41.4,92.4-92.5,92.4H220.1c-50,0-88.3,8.4-117.5,21.7
	c-29.3,13.3-50,31.2-65.7,52.4c-31.3,42-36.8,94-36.6,147c0,0,0.4,43.3,10.9,127.1c8.7,64.8,79,517.8,145.8,655.6
	c25.9,53.6,43.2,76,94,99.6c113.4,48.5,372.3,102.6,493.7,118c121.1,15.5,197.2,48.1,242.5-46.9c0.1-0.3,9.1-23.6,21.4-58
	c39.4-119.2,44.8-224.9,44.8-301.5c0-7.8,11.4-8.1,11.4,0c0,54-10.4,245.3,134.1,296.5c57.1,20.2,175.3,38.2,295.6,52.3
	c108.7,12.5,187.5,55.2,187.5,334.1c0,169.6-35.6,192.9-221.9,192.9c-151,0-208.6,3.9-208.6-116c0-97,95.9-86.8,167-86.8
	c31.8,0,8.7-23.6,8.7-83.4c0-59.6,37.3-94,2-94.8c-245.7-6.8-390.3-0.3-390.3,307.1c0,279,106.8,330.8,455.6,330.8
	c273.5,0,369.8-8.9,482.7-359.3c22.4-69.2,76.4-280.2,109.1-634.6C2106.8,1282,2066.7,605.7,2034.8,435L2034.8,435z M1558.1,1182.5
	c-33.8-1.2-66.3,1-96.6,5.8c8.5-68.8,37-153.4,137.7-149.9c111.5,3.9,127.1,109.2,127.5,180.6
	C1679.7,1198.1,1621.5,1184.8,1558.1,1182.5L1558.1,1182.5z"/>
</svg>
