<?xml version="1.0" encoding="utf-8"?>
<!-- Generator: Adobe Illustrator 21.0.0, SVG Export Plug-In . SVG Version: 6.00 Build 0)  -->
<svg version="1.1" id="Layer_1" xmlns="http://www.w3.org/2000/svg" xmlns:xlink="http://www.w3.org/1999/xlink" x="0px" y="0px"
	 viewBox="0 0 200 200" style="enable-background:new 0 0 200 200;" xml:space="preserve">
<style type="text/css">
	.st0{fill:#495057;}
</style>
<path class="st0" d="M38.3,43.6h17.3c1,0,1.8-0.8,1.8-1.8c0,0-0.2-14.8-0.2-18.9v0c0-3.4,0.7-6.3,1.9-8.8l0.6-1.1
	c-0.1,0-0.1,0-0.2,0.1L26,46.3c-0.1,0-0.1,0.1-0.1,0.2c0.7-0.3,1.6-0.8,1.8-0.9C30.6,44.3,34.1,43.6,38.3,43.6L38.3,43.6z M172.7,40
	c-1.4-7.3-5.7-11-9.7-12.4c-4.2-1.5-12.9-3.1-23.7-4.4c-8.7-1-19-0.9-25.2-0.7c-0.7-5.1-4.3-9.8-8.3-11.4C95.2,6.8,78.7,7.9,74.5,9
	c-3.4,0.9-7.1,2.9-9.1,5.8c-1.4,2-2.3,4.5-2.3,8.1c0,2,0,6.7,0.1,10.9c0,4.2,0.1,8,0.1,8c0,3.7-3,6.8-6.8,6.8H39.2
	c-3.7,0-6.5,0.6-8.6,1.6c-1.9,0.8-3.6,2.2-4.8,3.9c-2.3,3.1-2.7,6.9-2.7,10.8c0,0,0,3.2,0.8,9.3c0.6,4.8,5.8,38.1,10.7,48.3
	c1.9,4,3.2,5.6,6.9,7.3c8.4,3.6,27.4,7.5,36.3,8.7c8.9,1.2,14.5,3.5,17.8-3.5c0,0,0.7-1.7,1.6-4.3c2.9-8.8,3.3-16.6,3.3-22.2
	c0-0.6,0.8-0.6,0.8,0c0,4-0.8,18,9.9,21.8c4.2,1.5,12.9,2.8,21.7,3.9c8,0.9,13.8,4.1,13.8,24.6c0,12.5-2.6,14.2-16.3,14.2
	c-11.1,0-15.4,0.3-15.4-8.5c0-7.1,7.1-6.4,12.3-6.4c2.3,0,0.7-1.7,0.7-6.1c0-4.4,2.7-6.9,0.1-7c-18.1-0.5-28.7,0-28.7,22.6
	c0,20.5,7.9,24.3,33.5,24.3c20.1,0,27.2-0.7,35.5-26.4c1.6-5.1,5.6-20.6,8-46.7C178,102.3,175.1,52.5,172.7,40L172.7,40z M137.6,95
	c-2.5-0.1-4.9,0.1-7.1,0.4c0.6-5.1,2.7-11.3,10.1-11c8.2,0.3,9.3,8,9.4,13.3C146.6,96.1,142.3,95.2,137.6,95z"/>
</svg>
