<?xml version="1.0" encoding="utf-8"?>
<!-- Generator: Adobe Illustrator 21.0.0, SVG Export Plug-In . SVG Version: 6.00 Build 0)  -->
<svg version="1.1" id="Layer_1" xmlns="http://www.w3.org/2000/svg" xmlns:xlink="http://www.w3.org/1999/xlink" x="0px" y="0px"
	 viewBox="0 0 2500 1292" style="enable-background:new 0 0 2500 1292;" xml:space="preserve">
<style type="text/css">
	.st0{fill:#FFFFFF;}
</style>
<path class="st0" d="M858.9,157.9h76.5c4.4,0,7.9-3.5,7.9-7.9c0,0-0.9-65.6-0.9-83.8v-0.2c0-15,3.1-28,8.6-38.9l2.6-4.9
	c-0.3,0.1-0.6,0.2-0.9,0.5L804.2,169.9c-0.3,0.2-0.5,0.5-0.6,0.9c3.1-1.5,7.3-3.6,7.9-3.9C824.4,161,840.1,157.9,858.9,157.9
	L858.9,157.9z M1454,141.8c-6.1-32.5-25.4-48.5-42.9-54.8c-18.8-6.8-57.1-13.9-105.1-19.5c-38.6-4.6-84.1-4.2-111.5-3.3
	c-3.3-22.6-19.1-43.2-36.8-50.3c-47.2-19-120.1-14.4-138.7-9.1c-14.9,4.2-31.3,12.7-40.5,25.8c-6.1,8.8-10.1,20-10.1,35.7
	c0,8.9,0.2,29.8,0.5,48.4c0.2,18.6,0.5,35.3,0.5,35.4c0,16.6-13.5,30.1-30.1,30.1h-76.5c-16.3,0-28.8,2.7-38.3,7.1
	c-8.5,3.7-15.9,9.6-21.4,17.1c-10.2,13.7-12,30.6-11.9,47.9c0,0,0.2,14.1,3.5,41.4c2.8,21.1,25.8,168.8,47.5,213.7
	c8.5,17.5,14.1,24.8,30.6,32.4c37,15.8,121.3,33.4,160.9,38.5c39.5,5.1,64.3,15.7,79-15.3c0-0.1,2.9-7.7,7-18.9
	c12.8-38.8,14.6-73.3,14.6-98.3c0-2.5,3.7-2.7,3.7,0c0,17.6-3.4,79.9,43.7,96.6c18.6,6.6,57.1,12.5,96.3,17.1
	c35.4,4.1,61.1,18,61.1,108.9c0,55.3-11.6,62.9-72.3,62.9c-49.2,0-68,1.3-68-37.8c0-31.6,31.3-28.3,54.4-28.3
	c10.4,0,2.9-7.7,2.9-27.2c0-19.4,12.1-30.6,0.6-30.9c-80.1-2.2-127.2-0.1-127.2,100.1c0,90.9,34.8,107.8,148.5,107.8
	c89.1,0,120.5-2.9,157.3-117.1c7.3-22.5,24.9-91.3,35.6-206.8C1477.5,417.9,1464.4,197.4,1454,141.8L1454,141.8z M1298.6,385.4
	c-11-0.4-21.6,0.3-31.5,1.9c2.8-22.4,12.1-50,44.9-48.8c36.3,1.3,41.4,35.6,41.6,58.8C1338.2,390.5,1319.3,386.2,1298.6,385.4z"/>
<g>
	<path class="st0" d="M0.1,1244h34.3l1.6-218.8H0.1v-42h227l2.8,85.1h-44.8l-3.9-43.1H95.6l-0.6,85.6h86.7v42H94.5L94,1244h86.2
		l5.5-48.6h48.6l-5.5,90.6H0.1V1244z M591.2,1025.2h-28.7l-107.8,260.7h-61.9l-108.3-260.7h-30.4v-42h129.3v42H353l74.5,205.5h1.1
		l74-205.5h-36.5v-42h124.8L591.2,1025.2L591.2,1025.2L591.2,1025.2z M621,1244h34.3l1.7-218.8H621v-42h227l2.8,85.1H806l-3.9-43.1
		h-85.6l-0.5,85.6h86.7v42h-87.3l-0.6,91.2H801l5.5-48.6h48.6l-5.5,90.6H621V1244z M912.1,1244h34.3l1.6-218.8h-35.9v-42h139.8
		c70.2,0,92.8,40.3,92.8,79.5c0,34.8-17.1,66.3-71.3,80.1v1.1c28.2,7.7,35.4,14.9,63.5,63.5c18.8,31.5,25.4,36.5,35.9,36.5
		c4.4,0,8.9-1.1,12.7-1.7v43.6h-30.9c-40.9,0-45.8-4.9-77.8-68.5c-28.7-56.3-35.4-60.2-57.5-60.2h-12.1l-0.6,86.7h35.9v42H912.1
		L912.1,1244L912.1,1244z M1007.6,1115.2h23.8c32.5,0,54.7-17.7,54.7-45.9c0-27.6-13.8-44.2-41.4-44.2h-36.5L1007.6,1115.2
		L1007.6,1115.2z M1463.4,1025.2h-35.9v-42h118.7v42H1512l-1.6,260.7H1465l-161.8-215.4h-1.1l-1.7,173.5h35.9v41.9h-118.8V1244h34.3
		l1.6-218.8h-35.9v-42h89.5l153.5,204.9h1.1L1463.4,1025.2z M1718,977.1c104.4,0,150.3,69,150.3,153c0,95.6-56.9,161.9-150.3,161.9
		c-104.4,0-150.2-69-150.2-153.5C1567.8,1043.4,1624.6,977.1,1718,977.1L1718,977.1z M1718,1243.4c56.3,0,88.4-48.1,88.4-109.4
		c0-69-37.5-108.3-88.4-108.3c-56.3,0-88.4,48.1-88.4,110.5C1629.6,1204.2,1667.2,1243.4,1718,1243.4z M1963.3,1244h34.3l1.6-218.8
		h-60.7l-2.2,43.1h-45.8l3.3-85.1h271.2l3.3,85.1h-45.9l-2.2-43.1h-60.8l-1.6,218.8h35.9v41.9h-130.4L1963.3,1244L1963.3,1244z
		 M2201.9,1244h34.3l1.6-218.8h-35.9v-42H2429l2.8,85.1H2387l-3.9-43.1h-85.6l-0.6,85.6h86.7v42h-87.2l-0.6,91.2h86.2l5.5-48.6h48.6
		l-5.5,90.6h-228.7L2201.9,1244z"/>
</g>
</svg>
